<svg id="visual" viewBox="0 0 1440 300" width="1440" height="300" xmlns="http://www.w3.org/2000/svg" xmlns:xlink="http://www.w3.org/1999/xlink" version="1.1"><path d="M0 136L34.3 141.3C68.7 146.7 137.3 157.3 205.8 149.3C274.3 141.3 342.7 114.7 411.2 113.3C479.7 112 548.3 136 617 154.5C685.7 173 754.3 186 823 190.3C891.7 194.7 960.3 190.3 1028.8 187.2C1097.3 184 1165.7 182 1234.2 180.7C1302.7 179.3 1371.3 178.7 1405.7 178.3L1440 178L1440 301L1405.7 301C1371.3 301 1302.7 301 1234.2 301C1165.7 301 1097.3 301 1028.8 301C960.3 301 891.7 301 823 301C754.3 301 685.7 301 617 301C548.3 301 479.7 301 411.2 301C342.7 301 274.3 301 205.8 301C137.3 301 68.7 301 34.3 301L0 301Z" fill="#0066FF" stroke-linecap="round" stroke-linejoin="miter"></path></svg>